<svg width="6444" height="1025" viewBox="0 0 6444 1025" fill="none" xmlns="http://www.w3.org/2000/svg">
<path fill-rule="evenodd" clip-rule="evenodd" d="M357.012 0H666.988C769.792 0 821.191 0 876.521 17.4933C936.932 39.4809 984.519 87.0684 1006.51 147.479C1024 202.809 1024 254.208 1024 357.006V666.988C1024 769.786 1024 821.185 1006.51 876.521C984.519 936.926 936.932 984.513 876.521 1006.5C821.191 1024 769.792 1024 666.988 1024H357.012C254.214 1024 202.815 1024 147.484 1006.5C87.0741 984.513 39.4866 936.926 17.499 876.521C0 821.185 0 769.786 0 666.988V357.006C0 254.208 0 202.809 17.499 147.479C39.4866 87.0684 87.0741 39.4809 147.484 17.4933C202.815 0 254.214 0 357.012 0Z" fill="#393386"/>
<path fill-rule="evenodd" clip-rule="evenodd" d="M451.852 152L228.461 430.849C224.492 434.46 222 439.667 222 445.455C222 456.357 230.838 465.195 241.739 465.195C249.265 465.195 255.808 460.983 259.138 454.788C255.808 460.983 249.266 465.196 241.739 465.196H451.852V326.585H451.854V465.191H662.404V465.197C680.607 465.197 698.631 461.611 715.449 454.645C732.266 447.679 747.547 437.469 760.418 424.598C773.289 411.726 783.5 396.446 790.466 379.629C797.432 362.811 801.017 344.787 801.017 326.584H662.405V326.578H503.631C475.022 326.12 451.958 302.838 451.852 274.145V152Z" fill="#F89C35"/>
<path fill-rule="evenodd" clip-rule="evenodd" d="M571.171 872L794.562 593.151C798.532 589.54 801.023 584.333 801.023 578.545C801.023 567.643 792.186 558.805 781.284 558.805C773.758 558.805 767.216 563.017 763.886 569.212C767.216 563.017 773.758 558.804 781.284 558.804H571.171V872ZM519.096 697.422H360.618V697.416H222.006C222.006 679.213 225.592 661.189 232.558 644.371C239.524 627.554 249.734 612.274 262.605 599.402C275.477 586.531 290.757 576.321 307.575 569.355C324.392 562.389 342.417 558.803 360.62 558.803V558.809H571.17V697.422H571.169V750.052C571.166 721.172 547.905 697.726 519.096 697.422Z" fill="#4285F4"/>
<path d="M1718.54 1024C1598.95 1024 1505.47 991.733 1438.08 927.194C1370.69 862.655 1337 774.859 1337 663.814C1337 590.733 1353.13 526.193 1385.4 470.196C1418.62 414.199 1464.65 371.014 1523.5 340.643C1583.29 310.272 1652.1 295.086 1729.93 295.086C1782.13 295.086 1832.43 302.679 1880.84 317.864C1927.68 332.28 1965.98 351.397 1995.72 375.219C1998.57 377.5 1999.57 381.364 1998.29 384.781L1940.54 538.78C1938.47 544.276 1931.65 546.158 1926.88 542.737C1905.05 527.069 1879.26 514.279 1849.52 504.364C1816.3 492.025 1784.98 485.856 1755.56 485.856C1704.3 485.856 1664.92 500.093 1637.39 528.566C1610.82 557.039 1597.53 600.224 1597.53 658.119C1597.53 716.015 1610.82 759.673 1637.39 789.096C1664.92 818.518 1704.3 833.229 1755.56 833.229C1784.98 833.229 1816.3 827.535 1849.52 816.145C1879.22 805.42 1904.97 791.826 1926.78 775.363C1931.55 771.769 1938.54 773.621 1940.62 779.212L1998.29 934.243C1999.56 937.695 1998.53 941.586 1995.64 943.855C1964.1 968.601 1924.41 988.204 1876.57 1002.65C1827.21 1016.88 1774.54 1024 1718.54 1024Z" fill="#393386"/>
<path d="M2517.45 309.381C2596.97 309.381 2659.92 336.301 2706.31 390.141C2753.52 443.153 2777.13 515.216 2777.13 606.33V1003.99C2777.13 1008.75 2773.26 1012.62 2768.5 1012.62H2542.23C2537.47 1012.62 2533.6 1008.75 2533.6 1003.99V638.634C2533.6 598.875 2523.25 567.814 2502.54 545.449C2481.83 522.257 2454.08 510.66 2419.3 510.66C2382.85 510.66 2354.27 522.257 2333.57 545.449C2312.86 567.814 2302.5 598.875 2302.5 638.634V1003.99C2302.5 1008.75 2298.64 1012.62 2293.88 1012.62H2067.61C2062.85 1012.62 2058.98 1008.75 2058.98 1003.99V101.82C2058.98 97.0543 2062.85 93.1914 2067.61 93.1914H2293.88C2298.64 93.1914 2302.5 97.0543 2302.5 101.82V387.1C2302.5 395.584 2314.02 399.362 2319.64 393.011C2338.66 371.529 2361.94 353.592 2389.48 339.2C2426.75 319.32 2469.41 309.381 2517.45 309.381Z" fill="#393386"/>
<path d="M2833.72 663.459C2833.72 591.396 2846.56 528.444 2872.24 474.604C2898.74 420.764 2934.36 379.348 2979.09 350.357C3024.64 321.367 3075.17 306.871 3130.67 306.871C3178.71 306.871 3220.13 316.397 3254.91 335.448C3279.83 349.098 3300.72 366.148 3317.56 386.6C3323.16 393.381 3335.68 389.65 3335.68 380.865V324.197C3335.68 319.431 3339.53 315.568 3344.3 315.568H3570.57C3575.33 315.568 3579.2 319.431 3579.2 324.197V1003.97C3579.2 1008.73 3575.33 1012.6 3570.57 1012.6H3344.3C3339.53 1012.6 3335.68 1008.73 3335.68 1003.97V947.297C3335.68 938.513 3323.12 934.76 3317.5 941.516C3300.49 961.991 3279.2 979.058 3253.67 992.716C3218.88 1011.77 3177.88 1021.29 3130.67 1021.29C3075.17 1021.29 3024.64 1006.8 2979.09 977.807C2934.36 948.816 2898.74 907.4 2872.24 853.556C2846.56 798.888 2833.72 735.522 2833.72 663.459ZM3335.68 663.459C3335.68 618.73 3323.25 583.527 3298.4 557.849C3274.38 532.172 3244.56 519.333 3208.94 519.333C3172.5 519.333 3142.26 532.172 3118.24 557.849C3094.22 582.699 3082.21 617.902 3082.21 663.459C3082.21 708.188 3094.22 743.805 3118.24 770.311C3142.26 795.989 3172.5 808.828 3208.94 808.828C3244.56 808.828 3274.38 795.989 3298.4 770.311C3323.25 744.633 3335.68 709.016 3335.68 663.459Z" fill="#393386"/>
<path d="M3803.7 250.978C3760.63 250.978 3725.84 239.382 3699.33 216.189C3673.66 192.168 3660.82 162.349 3660.82 126.731C3660.82 90.2857 3673.66 60.0526 3699.33 36.0316C3725.84 12.0106 3760.63 0 3803.7 0C3845.94 0 3879.9 12.0106 3905.58 36.0316C3932.09 60.0526 3945.34 90.2857 3945.34 126.731C3945.34 162.349 3932.09 192.168 3905.58 216.189C3879.9 239.382 3845.94 250.978 3803.7 250.978ZM3915.59 315.586C3920.35 315.586 3924.22 319.449 3924.22 324.215V1003.99C3924.22 1008.75 3920.35 1012.61 3915.59 1012.61H3689.32C3684.55 1012.61 3680.7 1008.75 3680.7 1003.99V324.215C3680.7 319.449 3684.55 315.586 3689.32 315.586H3915.59Z" fill="#393386"/>
<path d="M4481.62 309.375C4561.96 309.375 4625.74 336.295 4672.96 390.135C4720.17 443.147 4743.78 515.21 4743.78 606.324V1003.99C4743.78 1008.75 4739.91 1012.61 4735.15 1012.61H4508.88C4504.11 1012.61 4500.25 1008.75 4500.25 1003.99V638.629C4500.25 598.87 4489.9 567.808 4469.19 545.444C4448.49 522.251 4420.74 510.655 4385.95 510.655C4349.5 510.655 4320.93 522.251 4300.22 545.444C4279.51 567.808 4269.16 598.87 4269.16 638.629V1003.99C4269.16 1008.75 4265.29 1012.61 4260.53 1012.61H4034.26C4029.49 1012.61 4025.63 1008.75 4025.63 1003.99V324.216C4025.63 319.45 4029.49 315.587 4034.26 315.587H4260.53C4265.29 315.587 4269.16 319.45 4269.16 324.216V387.095C4269.16 395.578 4280.67 399.356 4286.29 393.005C4305.32 371.523 4328.6 353.586 4356.13 339.194C4392.57 319.315 4434.4 309.375 4481.62 309.375Z" fill="#393386"/>
<path d="M5119.99 1023.79C5053.82 1023.79 4992.79 1016.8 4936.88 1002.82C4883.6 989.501 4838.36 970.26 4801.16 945.091C4797.92 942.899 4796.65 938.766 4798.01 935.099L4854.85 782.285C4856.77 777.106 4863 775.049 4867.7 777.948C4902.74 799.535 4942.11 817.184 4985.8 830.893C5033.32 844.871 5078.98 851.859 5122.78 851.859C5149.81 851.859 5170.77 848.132 5185.68 840.677C5200.59 832.291 5208.05 821.108 5208.05 807.131C5208.05 795.017 5202.45 785.698 5191.27 779.175C5181.02 772.652 5159.59 765.663 5126.97 758.209L5016.55 733.049C4946.66 717.207 4896.34 693.911 4865.59 663.16C4834.84 632.409 4819.46 588.612 4819.46 531.769C4819.46 487.972 4832.51 449.3 4858.6 415.754C4884.69 381.275 4921.04 354.718 4967.63 336.081C5015.15 317.444 5068.73 308.125 5128.37 308.125C5177.76 308.125 5226.68 315.58 5275.14 330.489C5322.1 343.78 5364.85 362.547 5403.38 386.79C5406.86 388.976 5408.24 393.337 5406.73 397.154L5348.85 543.113C5346.86 548.121 5340.82 550.101 5336.2 547.328C5301.8 526.682 5267 510.779 5231.81 499.62C5194.53 486.574 5159.12 480.051 5125.58 480.051C5098.55 480.051 5077.59 484.245 5062.68 492.631C5047.77 501.018 5040.31 513.132 5040.31 528.973C5040.31 538.292 5044.97 546.213 5054.29 552.736C5063.61 558.327 5079.92 563.918 5103.21 569.509L5219.23 596.067C5291.91 611.908 5344.56 636.602 5377.18 670.149C5409.79 702.763 5426.1 747.492 5426.1 804.335C5426.1 872.364 5398.61 925.945 5343.63 965.083C5289.58 1004.22 5215.03 1023.79 5119.99 1023.79Z" fill="#393386"/>
<path d="M5899.82 509.461C5899.82 514.227 5895.97 518.089 5891.19 518.089H5799.11C5794.35 518.089 5790.49 521.952 5790.49 526.718V1003.96C5790.49 1008.73 5786.63 1012.59 5781.86 1012.59H5554.35C5549.59 1012.59 5545.72 1008.73 5545.72 1003.96V526.718C5545.72 521.952 5541.86 518.089 5537.09 518.089H5478.56C5473.8 518.089 5469.93 514.227 5469.93 509.461V324.196C5469.93 319.43 5473.8 315.567 5478.56 315.567H5539.51C5542.94 315.567 5545.72 312.787 5545.72 309.355C5545.72 219.898 5571.81 151.562 5624 104.348C5677.01 56.3062 5752.8 32.2852 5851.37 32.2852C5866.77 32.2852 5879.43 32.5337 5889.37 33.0308C5893.87 33.2562 5897.34 37.0091 5897.34 41.5176V231.245C5897.34 236.435 5892.79 240.475 5887.61 240.191C5882.57 239.915 5876.7 239.777 5870 239.777C5843.5 239.777 5824.03 245.989 5811.61 258.414C5800.67 268.63 5793.89 284.631 5791.31 306.418C5790.72 311.36 5794.7 315.567 5799.67 315.567H5891.19C5895.97 315.567 5899.82 319.43 5899.82 324.196V509.461Z" fill="#393386"/>
<path d="M6218.71 410.8C6218.71 419.274 6229.99 422.904 6235.32 416.319C6259.15 386.889 6286.75 362.834 6318.11 344.153C6354.53 322.458 6393.48 310.91 6434.97 309.509C6439.73 309.348 6443.6 313.227 6443.6 317.992V560.411C6443.6 565.176 6439.73 569.039 6434.97 569.039H6375.26C6322.25 569.039 6282.9 579.393 6257.23 600.101C6231.55 620.809 6218.71 656.84 6218.71 708.196V1003.97C6218.71 1008.74 6214.85 1012.6 6210.08 1012.6H5983.82C5979.05 1012.6 5975.19 1008.74 5975.19 1003.97V324.204C5975.19 319.439 5979.05 315.576 5983.82 315.576H6210.08C6214.85 315.576 6218.71 319.439 6218.71 324.204V410.8Z" fill="#393386"/>
</svg>
