<svg width="64" height="64" viewBox="0 0 64 64" fill="none" xmlns="http://www.w3.org/2000/svg">
<rect x="0.5" y="0.5" width="63" height="63" rx="31.5" fill="white"/>
<g clip-path="url(#clip0)">
<path d="M51.9789 32.8496C51.9789 31.1725 51.8428 29.9488 51.5483 28.6797H32.3984V36.2489H43.639C43.4125 38.1299 42.1887 40.9628 39.4691 42.8663L39.431 43.1197L45.4858 47.8103L45.9053 47.8522C49.7579 44.2941 51.9789 39.0591 51.9789 32.8496" fill="#4285F4"/>
<path d="M32.3984 52.7926C37.9053 52.7926 42.5284 50.9795 45.9052 47.8522L39.469 42.8663C37.7467 44.0674 35.4351 44.9059 32.3984 44.9059C27.0047 44.9059 22.4269 41.348 20.795 36.4302L20.5559 36.4505L14.2599 41.323L14.1776 41.5519C17.5316 48.2147 24.4211 52.7926 32.3984 52.7926Z" fill="#34A853"/>
<path d="M20.7951 36.4303C20.3645 35.1612 20.1153 33.8014 20.1153 32.3963C20.1153 30.9912 20.3645 29.6315 20.7724 28.3624L20.761 28.0921L14.3862 23.1414L14.1776 23.2406C12.7953 26.0054 12.0021 29.1103 12.0021 32.3963C12.0021 35.6824 12.7953 38.7871 14.1776 41.552L20.7951 36.4303" fill="#FBBC05"/>
<path d="M32.3984 19.8865C36.2283 19.8865 38.8118 21.5409 40.285 22.9234L46.0413 17.303C42.506 14.017 37.9054 12 32.3984 12C24.4211 12 17.5316 16.5778 14.1776 23.2406L20.7724 28.3624C22.4269 23.4446 27.0047 19.8865 32.3984 19.8865" fill="#EB4335"/>
</g>
<rect x="0.5" y="0.5" width="63" height="63" rx="31.5" stroke="white"/>
<defs>
<clipPath id="clip0">
<rect x="12" y="12" width="40" height="40.9333" fill="white"/>
</clipPath>
</defs>
</svg>
