<svg width="1234" height="256" viewBox="0 0 1234 256" fill="none" xmlns="http://www.w3.org/2000/svg">
<path d="M403.067 206C382.046 206 365.613 200.328 353.768 188.983C341.923 177.638 336 162.205 336 142.686C336 129.84 338.836 118.495 344.509 108.652C350.348 98.8085 358.439 91.2175 368.783 85.8788C379.293 80.5401 391.389 77.8708 405.069 77.8708C414.245 77.8708 423.087 79.2055 431.596 81.8748C439.83 84.4087 446.563 87.7692 451.791 91.9566C452.291 92.3576 452.467 93.0368 452.241 93.6374L442.09 120.707C441.727 121.673 440.528 122.004 439.689 121.403C435.852 118.649 431.318 116.401 426.09 114.658C420.251 112.489 414.746 111.404 409.574 111.404C400.565 111.404 393.641 113.907 388.803 118.912C384.132 123.917 381.796 131.508 381.796 141.685C381.796 151.862 384.132 159.536 388.803 164.708C393.641 169.88 400.565 172.466 409.574 172.466C414.746 172.466 420.251 171.465 426.09 169.463C431.311 167.578 435.838 165.188 439.672 162.294C440.509 161.662 441.74 161.988 442.105 162.971L452.241 190.222C452.465 190.829 452.283 191.513 451.775 191.912C446.232 196.261 439.255 199.707 430.845 202.246C422.17 204.749 412.911 206 403.067 206Z" fill="white"/>
<path d="M543.499 80.3846C557.477 80.3846 568.543 85.1166 576.696 94.5807C584.995 103.899 589.145 116.566 589.145 132.582V202.484C589.145 203.321 588.466 204 587.628 204H547.855C547.018 204 546.338 203.321 546.338 202.484V138.261C546.338 131.272 544.518 125.812 540.878 121.881C537.238 117.804 532.361 115.766 526.246 115.766C519.839 115.766 514.816 117.804 511.176 121.881C507.536 125.812 505.716 131.272 505.716 138.261V202.484C505.716 203.321 505.036 204 504.199 204H464.426C463.589 204 462.909 203.321 462.909 202.484V43.8995C462.909 43.0618 463.589 42.3828 464.426 42.3828H504.199C505.036 42.3828 505.716 43.0618 505.716 43.8995V94.0462C505.716 95.5374 507.741 96.2016 508.728 95.0851C512.072 91.3091 516.164 88.156 521.004 85.6262C527.556 82.1318 535.054 80.3846 543.499 80.3846Z" fill="white"/>
<path d="M599.093 142.622C599.093 129.954 601.35 118.889 605.864 109.425C610.523 99.9607 616.784 92.6806 624.646 87.5846C632.654 82.4886 641.536 79.9406 651.291 79.9406C659.736 79.9406 667.016 81.615 673.131 84.9638C677.511 87.3632 681.183 90.3603 684.144 93.9554C685.127 95.1473 687.327 94.4915 687.327 92.9473V82.986C687.327 82.1484 688.005 81.4694 688.844 81.4694H728.617C729.454 81.4694 730.134 82.1484 730.134 82.986V202.476C730.134 203.314 729.454 203.993 728.617 203.993H688.844C688.005 203.993 687.327 203.314 687.327 202.476V192.515C687.327 190.971 685.121 190.311 684.133 191.499C681.142 195.098 677.401 198.098 672.913 200.499C666.798 203.847 659.59 205.522 651.291 205.522C641.536 205.522 632.654 202.974 624.646 197.878C616.784 192.782 610.523 185.502 605.864 176.037C601.35 166.427 599.093 155.289 599.093 142.622ZM687.327 142.622C687.327 134.759 685.143 128.571 680.775 124.058C676.553 119.544 671.311 117.287 665.05 117.287C658.644 117.287 653.33 119.544 649.107 124.058C644.885 128.426 642.773 134.614 642.773 142.622C642.773 150.484 644.885 156.745 649.107 161.404C653.33 165.918 658.644 168.175 665.05 168.175C671.311 168.175 676.553 165.918 680.775 161.404C685.143 156.891 687.327 150.63 687.327 142.622Z" fill="white"/>
<path d="M769.597 70.117C762.026 70.117 755.911 68.0786 751.251 64.0018C746.738 59.7793 744.481 54.5377 744.481 48.2769C744.481 41.8704 746.738 36.5561 751.251 32.3336C755.911 28.1112 762.026 26 769.597 26C777.023 26 782.992 28.1112 787.506 32.3336C792.165 36.5561 794.495 41.8704 794.495 48.2769C794.495 54.5377 792.165 59.7793 787.506 64.0018C782.992 68.0786 777.023 70.117 769.597 70.117ZM789.265 81.4738C790.103 81.4738 790.782 82.1529 790.782 82.9905V202.481C790.782 203.318 790.103 203.997 789.265 203.997H749.492C748.653 203.997 747.975 203.318 747.975 202.481V82.9905C747.975 82.1529 748.653 81.4738 749.492 81.4738H789.265Z" fill="white"/>
<path d="M888.763 80.3821C902.886 80.3821 914.098 85.1141 922.397 94.5782C930.696 103.897 934.846 116.564 934.846 132.58V202.481C934.846 203.318 934.166 203.998 933.329 203.998H893.556C892.717 203.998 892.039 203.318 892.039 202.481V138.258C892.039 131.27 890.219 125.81 886.579 121.878C882.939 117.801 878.061 115.763 871.946 115.763C865.54 115.763 860.516 117.801 856.876 121.878C853.236 125.81 851.416 131.27 851.416 138.258V202.481C851.416 203.318 850.737 203.998 849.9 203.998H810.127C809.288 203.998 808.61 203.318 808.61 202.481V82.9908C808.61 82.1531 809.288 81.4741 810.127 81.4741H849.9C850.737 81.4741 851.416 82.1531 851.416 82.9908V94.0437C851.416 95.5349 853.44 96.199 854.429 95.0826C857.773 91.3065 861.865 88.1535 866.705 85.6237C873.111 82.1293 880.464 80.3821 888.763 80.3821Z" fill="white"/>
<path d="M1000.97 205.962C989.345 205.962 978.616 204.733 968.788 202.276C959.422 199.935 951.47 196.553 944.932 192.128C944.362 191.743 944.139 191.017 944.378 190.372L954.369 163.51C954.707 162.6 955.802 162.238 956.629 162.748C962.786 166.543 969.707 169.645 977.387 172.055C985.741 174.512 993.767 175.74 1001.47 175.74C1006.22 175.74 1009.9 175.085 1012.52 173.775C1015.14 172.3 1016.45 170.335 1016.45 167.878C1016.45 165.748 1015.47 164.11 1013.51 162.964C1011.7 161.817 1007.94 160.589 1002.2 159.278L982.793 154.856C970.508 152.071 961.662 147.976 956.257 142.57C950.852 137.165 948.149 129.466 948.149 119.475C948.149 111.776 950.442 104.978 955.029 99.0813C959.615 93.0207 966.003 88.3524 974.193 85.0764C982.547 81.8004 991.966 80.1624 1002.45 80.1624C1011.13 80.1624 1019.73 81.4728 1028.25 84.0936C1036.5 86.4299 1044.02 89.7286 1050.79 93.99C1051.4 94.3744 1051.64 95.141 1051.38 95.8119L1041.2 121.469C1040.85 122.349 1039.79 122.697 1038.98 122.21C1032.93 118.58 1026.82 115.785 1020.63 113.823C1014.08 111.53 1007.85 110.384 1001.96 110.384C997.207 110.384 993.522 111.121 990.901 112.595C988.28 114.069 986.97 116.199 986.97 118.983C986.97 120.621 987.789 122.013 989.427 123.16C991.065 124.143 993.931 125.126 998.026 126.108L1018.42 130.777C1031.2 133.561 1040.45 137.902 1046.18 143.799C1051.92 149.532 1054.78 157.394 1054.78 167.386C1054.78 179.344 1049.95 188.763 1040.29 195.643C1030.79 202.522 1017.68 205.962 1000.97 205.962Z" fill="white"/>
<path d="M1138.05 115.554C1138.05 116.391 1137.38 117.07 1136.54 117.07H1120.35C1119.51 117.07 1118.83 117.749 1118.83 118.587V202.478C1118.83 203.315 1118.16 203.994 1117.32 203.994H1077.33C1076.49 203.994 1075.81 203.315 1075.81 202.478V118.587C1075.81 117.749 1075.13 117.07 1074.29 117.07H1064C1063.17 117.07 1062.49 116.391 1062.49 115.554V82.9877C1062.49 82.15 1063.17 81.471 1064 81.471H1074.72C1075.32 81.471 1075.81 80.9822 1075.81 80.379C1075.81 64.6541 1080.4 52.6421 1089.57 44.3428C1098.89 35.898 1112.21 31.6756 1129.54 31.6756C1132.24 31.6756 1134.47 31.7193 1136.22 31.8066C1137.01 31.8463 1137.62 32.5059 1137.62 33.2985V66.6489C1137.62 67.5611 1136.82 68.2712 1135.91 68.2213C1135.02 68.1728 1133.99 68.1485 1132.81 68.1485C1128.15 68.1485 1124.73 69.2406 1122.55 71.4246C1120.62 73.2203 1119.43 76.033 1118.98 79.8627C1118.88 80.7315 1119.57 81.471 1120.45 81.471H1136.54C1137.38 81.471 1138.05 82.15 1138.05 82.9877V115.554Z" fill="white"/>
<path d="M1194.11 98.2099C1194.11 99.6994 1196.09 100.337 1197.03 99.1801C1201.22 94.0069 1206.07 89.7784 1211.58 86.4946C1217.98 82.6811 1224.83 80.6512 1232.12 80.4049C1232.96 80.3767 1233.64 81.0584 1233.64 81.8961V124.509C1233.64 125.346 1232.96 126.025 1232.12 126.025H1221.63C1212.31 126.025 1205.39 127.845 1200.88 131.485C1196.37 135.125 1194.11 141.459 1194.11 150.486V202.478C1194.11 203.315 1193.43 203.995 1192.59 203.995H1152.82C1151.98 203.995 1151.3 203.315 1151.3 202.478V82.9881C1151.3 82.1504 1151.98 81.4714 1152.82 81.4714H1192.59C1193.43 81.4714 1194.11 82.1504 1194.11 82.9881V98.2099Z" fill="white"/>
<path fill-rule="evenodd" clip-rule="evenodd" d="M89.253 0H166.747C192.448 0 205.298 0 219.13 4.37333C234.233 9.87022 246.13 21.7671 251.627 36.8697C256 50.7022 256 63.552 256 89.2516V166.747C256 192.447 256 205.296 251.627 219.13C246.13 234.231 234.233 246.128 219.13 251.625C205.298 256 192.448 256 166.747 256H89.253C63.5534 256 50.7036 256 36.8711 251.625C21.7685 246.128 9.87164 234.231 4.37476 219.13C0 205.296 0 192.447 0 166.747V89.2516C0 63.552 0 50.7022 4.37476 36.8697C9.87164 21.7671 21.7685 9.87022 36.8711 4.37333C50.7036 0 63.5534 0 89.253 0ZM112.963 38L57.1154 107.712C56.123 108.615 55.5 109.917 55.5 111.364C55.5 114.089 57.7094 116.299 60.4348 116.299C61.6349 116.299 62.7351 115.87 63.5905 115.158C62.7351 115.87 61.635 116.299 60.4348 116.299H112.963V81.6464H112.963V116.298H165.601V116.299C170.152 116.299 174.658 115.403 178.862 113.661C183.067 111.92 186.887 109.367 190.105 106.149C193.322 102.932 195.875 99.1115 197.616 94.9071C199.358 90.7028 200.254 86.1966 200.254 81.6459H165.601V81.6444H125.908C118.755 81.53 112.99 75.7095 112.963 68.5362V38ZM198.64 148.288L142.792 218V139.701H195.321C194.152 139.701 193.078 140.107 192.233 140.786C193.078 140.108 194.152 139.701 195.321 139.701C198.046 139.701 200.255 141.911 200.255 144.636C200.255 146.083 199.632 147.385 198.64 148.288ZM90.154 174.356H129.774C136.976 174.431 142.791 180.293 142.792 187.513V174.356H142.792V139.702H90.1544V139.701C85.6037 139.701 81.0975 140.597 76.8932 142.339C72.6889 144.08 68.8687 146.633 65.6508 149.851C62.433 153.068 59.8804 156.889 58.139 161.093C56.3975 165.297 55.5011 169.803 55.5011 174.354H90.154V174.356Z" fill="white"/>
</svg>
